<svg xmlns="http://www.w3.org/2000/svg" viewBox="0 0 1920 1080" width="1920" height="1080">
  <rect width="100%" height="100%" fill="#F3F3F3"/>
  <g stroke="#FFFFFF" stroke-opacity="1" stroke-width="1" fill="none">
    <path d="M0,100 Q400,200 800,100 T1920,100"/>
    <path d="M0,120 Q500,300 1000,120 Q1500,20 1920,120"/>
    <path d="M0,150 Q600,250 1200,150 Q1800,50 1920,150"/>
    <path d="M0,200 Q400,100 800,200 Q1200,300 1600,200 Q2000,100 1920,200"/>
    <path d="M0,220 Q600,300 1200,220 T1920,220"/>
    <path d="M0,250 Q400,350 800,250 T1600,250 T1920,250"/>
    <path d="M0,300 Q500,100 1000,300 Q1500,500 1920,300"/>
    <path d="M0,320 Q600,420 1200,320 Q1800,220 1920,320"/>
    <path d="M0,350 Q400,250 800,350 Q1200,450 1600,350 Q2000,250 1920,350"/>
    <path d="M0,400 Q400,500 800,400 T1600,400 T1920,400"/>
    <path d="M0,420 Q500,300 1000,420 Q1500,540 1920,420"/>
    <path d="M0,450 Q600,550 1200,450 Q1800,350 1920,450"/>
    <path d="M0,500 Q400,400 800,500 Q1200,600 1600,500 Q2000,400 1920,500"/>
    <path d="M0,520 Q600,600 1200,520 T1920,520"/>
    <path d="M0,550 Q400,650 800,550 T1600,550 T1920,550"/>
    <path d="M0,600 Q500,400 1000,600 Q1500,800 1920,600"/>
    <path d="M0,620 Q600,720 1200,620 Q1800,520 1920,620"/>
    <path d="M0,650 Q400,550 800,650 Q1200,750 1600,650 Q2000,550 1920,650"/>
    <path d="M0,700 Q400,800 800,700 T1600,700 T1920,700"/>
    <path d="M0,720 Q500,600 1000,720 Q1500,840 1920,720"/>
    <path d="M0,750 Q600,850 1200,750 Q1800,650 1920,750"/>
    <path d="M0,800 Q400,700 800,800 Q1200,900 1600,800 Q2000,700 1920,800"/>
    <path d="M0,820 Q600,900 1200,820 T1920,820"/>
    <path d="M0,850 Q400,950 800,850 T1600,850 T1920,850"/>
    <path d="M0,900 Q500,700 1000,900 Q1500,1100 1920,900"/>
    <path d="M0,920 Q600,1020 1200,920 Q1800,820 1920,920"/>
    <path d="M0,950 Q400,850 800,950 Q1200,1050 1600,950 Q2000,850 1920,950"/>
    <path d="M0,1000 Q400,1100 800,1000 T1600,1000 T1920,1000"/>
    <path d="M0,1020 Q500,900 1000,1020 Q1500,1140 1920,1020"/>
    <path d="M0,1050 Q600,1150 1200,1050 Q1800,950 1920,1050"/>
  </g>
</svg>